<svg id="Calque_1" data-name="Calque 1" xmlns="http://www.w3.org/2000/svg" viewBox="0 0 281 26">
  <defs>
    <style>
      .cls-1 {
        fill: #2c2051;
      }
    </style>
  </defs>
  <g>
    <path class="cls-1" d="M61.78,6.05,57.56,16H66ZM59.53.89h4.69L75.13,26.11H70.25L67.69,20H55.87L53.3,26.11H48.62Z" transform="translate(0 -0.5)"/>
    <path class="cls-1" d="M88.41,26.5q-5.35,0-8.27-2.87t-2.92-8.16V.89h4.49V15.31a7.38,7.38,0,0,0,1.7,5.26,6.53,6.53,0,0,0,5,1.79,6.54,6.54,0,0,0,5-1.79,7.29,7.29,0,0,0,1.72-5.26V.89H99.6V15.47q0,5.28-2.92,8.16T88.41,26.5" transform="translate(0 -0.5)"/>
    <polygon class="cls-1" points="112.21 4.53 103.15 4.53 103.15 0.39 125.72 0.39 125.72 4.53 116.7 4.53 116.7 25.61 112.21 25.61 112.21 4.53"/>
    <path class="cls-1" d="M141.29,22.37a8,8,0,0,0,6.06-2.45,8.93,8.93,0,0,0,2.33-6.42,9,9,0,0,0-2.33-6.44,8.71,8.71,0,0,0-12.13,0,9,9,0,0,0-2.33,6.44,8.93,8.93,0,0,0,2.33,6.42,8,8,0,0,0,6.07,2.45m0-21.87a12.6,12.6,0,0,1,13,13,13,13,0,1,1-26,0,12.6,12.6,0,0,1,13-13" transform="translate(0 -0.5)"/>
    <polygon class="cls-1" points="174.66 23.52 170.28 23.52 164.1 7.17 162.33 25.61 157.99 25.61 160.36 0.39 166.07 0.39 172.61 18.12 179.15 0.39 184.75 0.39 187.15 25.61 182.58 25.61 180.76 6.89 174.66 23.52"/>
    <path class="cls-1" d="M203.81,22.37a8,8,0,0,0,6.07-2.45,8.93,8.93,0,0,0,2.33-6.42,9,9,0,0,0-2.33-6.44,8.71,8.71,0,0,0-12.13,0,9,9,0,0,0-2.33,6.44,8.93,8.93,0,0,0,2.33,6.42,8,8,0,0,0,6.06,2.45m0-21.87a12.6,12.6,0,0,1,13,13,13,13,0,1,1-26,0,12.6,12.6,0,0,1,13-13" transform="translate(0 -0.5)"/>
    <polygon class="cls-1" points="228.44 4.53 219.38 4.53 219.38 0.39 241.95 0.39 241.95 4.53 232.93 4.53 232.93 25.61 228.44 25.61 228.44 4.53"/>
    <rect class="cls-1" x="246.09" y="0.39" width="4.49" height="25.22"/>
    <polygon class="cls-1" points="270.13 25.61 265.36 25.61 254.48 0.39 259.45 0.39 267.84 20.33 276.19 0.39 281 0.39 270.13 25.61"/>
    <polygon class="cls-1" points="0 0.51 7.77 0.51 13.63 17.77 13.71 17.77 19.26 0.51 27.02 0.51 27.02 25.6 21.86 25.6 21.86 7.82 21.79 7.82 15.64 25.6 11.39 25.6 5.24 8 5.17 8 5.17 25.6 0 25.6 0 0.51"/>
    <rect class="cls-1" x="35.57" y="8.92" width="7.59" height="7.59"/>
  </g>
</svg>
